<svg xmlns="http://www.w3.org/2000/svg" width="17.907" height="17.907" viewBox="0 0 17.907 17.907">
  <defs>
    <style>
      .cls-1 {
        fill: #fff;
        fill-rule: evenodd;
      }
    </style>
  </defs>
  <path class="cls-1" d="M816.782,326.765a0.336,0.336,0,0,0,.475,0h0l1.575-1.575a0.335,0.335,0,0,0,0-.474h0l-1.575-1.575a0.336,0.336,0,0,0-.475,0h0l-1.575,1.575a0.335,0.335,0,0,0,0,.474h0Zm0,3.428-1.575,1.574a0.336,0.336,0,0,0,0,.475h0l1.575,1.575a0.336,0.336,0,0,0,.475,0h0l1.575-1.575a0.336,0.336,0,0,0,0-.475h0l-1.575-1.574a0.334,0.334,0,0,0-.475,0h0Zm0.475,7.051a0.336,0.336,0,0,0-.475,0h0l-1.575,1.575a0.336,0.336,0,0,0,0,.475h0l1.575,1.575a0.336,0.336,0,0,0,.475,0h0l1.575-1.575a0.336,0.336,0,0,0,0-.475h0ZM815.3,335.29l-3.144-3.144a0.2,0.2,0,0,1,0-.282h0l3.144-3.145a0.34,0.34,0,0,0,0-.481l-1.568-1.568a0.34,0.34,0,0,0-.481,0l-5.1,5.094a0.34,0.34,0,0,0,0,.481l5.1,5.094a0.34,0.34,0,0,0,.481,0l1.568-1.568a0.34,0.34,0,0,0,0-.481h0Zm10.58-3.526-5.095-5.094a0.34,0.34,0,0,0-.481,0l-1.569,1.568a0.34,0.34,0,0,0,0,.481l3.145,3.145a0.2,0.2,0,0,1,0,.282h0l-3.145,3.144a0.34,0.34,0,0,0,0,.481l1.569,1.568a0.34,0.34,0,0,0,.481,0l5.095-5.094a0.34,0.34,0,0,0,0-.481h0Z" transform="translate(-808.062 -323.062)"/>
</svg>
