<svg id="Interest_" data-name="Interest " xmlns="http://www.w3.org/2000/svg" xmlns:xlink="http://www.w3.org/1999/xlink" width="21.113" height="23.92" viewBox="0 0 21.113 23.92">
  <defs>
    <clipPath id="clip-path">
      <rect id="Rectangle_1730" data-name="Rectangle 1730" width="21.113" height="23.92" fill="#c3b45b"/>
    </clipPath>
  </defs>
  <g id="Group_8216" data-name="Group 8216" clip-path="url(#clip-path)">
    <path id="Path_26737" data-name="Path 26737" d="M188.285,242.069a6.306,6.306,0,1,1-6.309,6.291,6.316,6.316,0,0,1,6.309-6.291m-1.4,8.486a1.645,1.645,0,0,0,.417-.242q1.474-1.448,2.923-2.921a.846.846,0,0,0,.207-.38.657.657,0,0,0-.346-.746.678.678,0,0,0-.834.131q-1.061,1.052-2.114,2.112c-.286.286-.577.567-.856.86a.659.659,0,0,0-.127.777.736.736,0,0,0,.731.407m2.839-.039a.71.71,0,0,0,.7-.7.7.7,0,0,0-.7-.7.689.689,0,0,0-.695.693.7.7,0,0,0,.693.7m-2.976-2.98a.69.69,0,0,0,.7-.693.7.7,0,0,0-.693-.7.709.709,0,0,0-.7.7.7.7,0,0,0,.7.7" transform="translate(-173.475 -230.762)" fill="#c3b45b"/>
    <path id="Path_26738" data-name="Path 26738" d="M4.885,140.551a2.464,2.464,0,0,0,1.873.579q1.4-.025,2.8,0a2.447,2.447,0,0,0,1.837-.58l2.747,3.364a7.821,7.821,0,0,0-4.312,1.8c-.019-.578-.406-.8-.837-.968a.271.271,0,0,1-.207-.236.671.671,0,0,0-.7-.581.705.705,0,0,0-.674.625.372.372,0,0,1-.161.236,1.76,1.76,0,0,0-.994,1.5,1.656,1.656,0,0,0,.881,1.584c.223.137.468.238.715.362l-.459,1.185c-.09-.045-.178-.091-.266-.134a.7.7,0,0,0-.932.27.692.692,0,0,0,.242.94c.178.109.379.178.562.28.058.033.13.118.126.173a7.687,7.687,0,0,0,.762,4.031.292.292,0,0,1,.008.068c-.267,0-.534.009-.8,0a10.9,10.9,0,0,1-3.139-.535A5.474,5.474,0,0,1,0,148.892a6.3,6.3,0,0,1,.81-2.845,21.372,21.372,0,0,1,2.588-3.7c.489-.594.982-1.185,1.487-1.793" transform="translate(0 -133.985)" fill="#c3b45b"/>
    <path id="Path_26739" data-name="Path 26739" d="M102.445,1.591a1.116,1.116,0,0,1-.641,1.061.719.719,0,0,0-.262.191.435.435,0,0,1-.543.152,1.654,1.654,0,0,0-.508-.052c-1.16,0-2.32-.007-3.479,0-.23,0-.46.064-.691.082a.406.406,0,0,1-.238-.069c-.134-.091-.239-.246-.384-.3A1.3,1.3,0,0,1,95.107,1.1,1.526,1.526,0,0,1,96.547.005C98.018,0,99.49,0,100.961.006a1.52,1.52,0,0,1,1.484,1.585" transform="translate(-90.61 0)" fill="#c3b45b"/>
    <path id="Path_26740" data-name="Path 26740" d="M122.733,92.922c.591,0,1.182,0,1.773,0a.7.7,0,1,1,0,1.4q-1.761.007-3.523,0a.7.7,0,1,1,0-1.4c.583,0,1.167,0,1.75,0" transform="translate(-114.607 -88.581)" fill="#c3b45b"/>
    <path id="Path_26741" data-name="Path 26741" d="M165.164,258.237l-.537.644c-.247-.113-.5-.217-.736-.34-.134-.069-.27-.189-.2-.349.057-.125.19-.285.3-.3a1.678,1.678,0,0,1,.644.087,3.35,3.35,0,0,1,.522.255" transform="translate(-156.029 -245.842)" fill="#c3b45b"/>
  </g>
</svg>
