<svg xmlns="http://www.w3.org/2000/svg" width="18" height="19.219" viewBox="0 0 18 19.219">
  <defs>
    <style>
      .cls-1 {
        fill: #cac7d2;
        fill-rule: evenodd;
      }
    </style>
  </defs>
  <path class="cls-1" d="M1143.2,268.353a1.053,1.053,0,0,0-1.2.88,0.021,0.021,0,0,0-.01.02,6.8,6.8,0,0,1-1.95,3.858,6.934,6.934,0,1,1-9.81-9.8,6.865,6.865,0,0,1,3.74-1.92,6.579,6.579,0,0,1,1.97-.058,6.776,6.776,0,0,1,2.63.883l-1.39.238a1.066,1.066,0,1,0,.33,2.107l0.03-.006,3.73-.635a1.068,1.068,0,0,0,.87-1.232l-0.64-3.721a1.065,1.065,0,1,0-2.11.287,0.184,0.184,0,0,0,.01.073l0.17,0.98a9.062,9.062,0,0,0-3.39-1.093,8.661,8.661,0,0,0-2.59.079,8.967,8.967,0,0,0-4.87,2.51,9.068,9.068,0,0,0,12.83,12.817,8.91,8.91,0,0,0,2.55-5.055,1.059,1.059,0,0,0-.9-1.211h0Z" transform="translate(-1126.09 -258.062)"/>
</svg>
