<svg xmlns="http://www.w3.org/2000/svg" width="19.22" height="19.25" viewBox="0 0 19.22 19.25">
  <defs>
    <style>
      .cls-1 {
        fill: #716d86;
        fill-rule: evenodd;
      }
    </style>
  </defs>
  <path class="cls-1" d="M1094.5,260.193a9.607,9.607,0,1,1-4.01,7.808,1.065,1.065,0,1,1,2.13,0,7.48,7.48,0,1,0,3.62-6.4h0.39a1.068,1.068,0,1,1,0,2.135h-3.2a1.069,1.069,0,0,1-1.07-1.067v-3.2a1.07,1.07,0,0,1,2.14,0v0.728Zm5.59,2.47a1.07,1.07,0,0,1,1.07,1.068v3.828l2.36,2.356a1.068,1.068,0,0,1-1.51,1.51l-2.67-2.669a1.066,1.066,0,0,1-.31-0.755v-4.27A1.061,1.061,0,0,1,1100.09,262.663Z" transform="translate(-1090.5 -258.375)"/>
</svg>
