<svg xmlns="http://www.w3.org/2000/svg" width="14.156" height="16.438" viewBox="0 0 14.156 16.438">
  <defs>
    <style>
      .cls-1 {
        fill: #22163c;
        fill-rule: evenodd;
      }
    </style>
  </defs>
  <path class="cls-1" d="M926.61,558.785a0.746,0.746,0,0,0-.746.746v8.953a0.746,0.746,0,1,1-1.492,0v-8.953a2.239,2.239,0,0,1,2.238-2.239h7.458a0.747,0.747,0,0,1,0,1.493H926.61Zm0.746,3.73a2.237,2.237,0,0,1,2.237-2.238h6.712a2.238,2.238,0,0,1,2.238,2.238v8.954a2.239,2.239,0,0,1-2.238,2.239h-6.712a2.238,2.238,0,0,1-2.237-2.239v-8.954Zm2.237-.746a0.746,0.746,0,0,0-.746.746v8.954a0.746,0.746,0,0,0,.746.746h6.712a0.746,0.746,0,0,0,.746-0.746v-8.954a0.746,0.746,0,0,0-.746-0.746h-6.712Z" transform="translate(-924.375 -557.281)"/>
</svg>
