<svg xmlns="http://www.w3.org/2000/svg" width="13.656" height="16.376" viewBox="0 0 13.656 16.376">
  <defs>
    <style>
      .cls-1 {
        fill: #fff;
        fill-rule: evenodd;
      }
    </style>
  </defs>
  <path class="cls-1" d="M973.621,516.93l5.918-5.917a0.9,0.9,0,0,0,0-1.268L979,509.208a0.888,0.888,0,0,0-.634-0.262,0.9,0.9,0,0,0-.641.262l-3.46,3.452V501.693a0.875,0.875,0,0,0-.882-0.885h-0.76a0.91,0.91,0,0,0-.921.885V512.7l-3.479-3.491a0.887,0.887,0,0,0-1.259,0l-0.536.537a0.9,0.9,0,0,0,0,1.268l5.917,5.917a0.9,0.9,0,0,0,1.273,0h0Z" transform="translate(-966.156 -500.812)"/>
</svg>
